<svg xmlns="http://www.w3.org/2000/svg" width="1200" height="630" viewBox="0 0 1200 630" role="img" aria-labelledby="title desc">
  <title id="title">GCC Market Entry social preview</title>
  <desc id="desc">Free independent GCC guide for Malaysian businesses.</desc>
  <defs>
    <linearGradient id="bg" x1="0" y1="0" x2="1" y2="1">
      <stop offset="0" stop-color="#fbfaf4"/>
      <stop offset="0.62" stop-color="#ffffff"/>
      <stop offset="1" stop-color="#eef4ef"/>
    </linearGradient>
    <filter id="shadow" x="-20%" y="-20%" width="140%" height="140%">
      <feDropShadow dx="0" dy="18" stdDeviation="24" flood-color="#123b2c" flood-opacity="0.12"/>
    </filter>
  </defs>
  <rect width="1200" height="630" fill="url(#bg)"/>
  <circle cx="1100" cy="68" r="190" fill="#c59b4f" opacity="0.08"/>
  <circle cx="1040" cy="560" r="260" fill="#123b2c" opacity="0.055"/>

  <g transform="translate(70 62)">
    <rect width="58" height="58" rx="15" fill="#123b2c"/>
    <circle cx="29" cy="29" r="18" fill="none" stroke="#c59b4f" stroke-width="3"/>
    <path d="M16 37c7-8 12-12 21-18" fill="none" stroke="#fff" stroke-width="4" stroke-linecap="round"/>
    <path d="M36 12l12 5-10 8 2-6-6-2z" fill="#fff"/>
    <text x="78" y="24" font-family="Arial, Helvetica, sans-serif" font-size="22" font-weight="800" fill="#123b2c">GCC MARKET ENTRY</text>
    <text x="78" y="47" font-family="Arial, Helvetica, sans-serif" font-size="13" font-weight="700" letter-spacing="2.1" fill="#8a6b2d">FREE • INDEPENDENT • MULTILINGUAL</text>
  </g>

  <g transform="translate(70 186)">
    <text x="0" y="0" font-family="Arial, Helvetica, sans-serif" font-size="27" font-weight="800" fill="#8a6b2d">MALAYSIA → GCC</text>
    <text x="0" y="68" font-family="Arial, Helvetica, sans-serif" font-size="58" font-weight="900" fill="#14261e">Enter the GCC with</text>
    <text x="0" y="133" font-family="Arial, Helvetica, sans-serif" font-size="58" font-weight="900" fill="#123b2c">better information.</text>
    <text x="0" y="183" font-family="Arial, Helvetica, sans-serif" font-size="22" font-weight="500" fill="#5d6b64">Official-source-first guides, free tools and verified career links</text>
    <text x="0" y="215" font-family="Arial, Helvetica, sans-serif" font-size="22" font-weight="500" fill="#5d6b64">for Malaysian businesses exploring Saudi Arabia, UAE and the Gulf.</text>

    <g transform="translate(0 258)">
      <rect width="174" height="44" rx="22" fill="#eef4ef"/>
      <text x="87" y="28" text-anchor="middle" font-family="Arial, Helvetica, sans-serif" font-size="15" font-weight="800" fill="#123b2c">Saudi Arabia</text>
      <rect x="188" width="96" height="44" rx="22" fill="#eef4ef"/>
      <text x="236" y="28" text-anchor="middle" font-family="Arial, Helvetica, sans-serif" font-size="15" font-weight="800" fill="#123b2c">UAE</text>
      <rect x="298" width="106" height="44" rx="22" fill="#eef4ef"/>
      <text x="351" y="28" text-anchor="middle" font-family="Arial, Helvetica, sans-serif" font-size="15" font-weight="800" fill="#123b2c">Qatar</text>
      <rect x="418" width="104" height="44" rx="22" fill="#eef4ef"/>
      <text x="470" y="28" text-anchor="middle" font-family="Arial, Helvetica, sans-serif" font-size="15" font-weight="800" fill="#123b2c">Oman</text>
    </g>
  </g>

  <g transform="translate(825 150)" filter="url(#shadow)">
    <rect width="295" height="330" rx="36" fill="#123b2c"/>
    <text x="35" y="55" font-family="Arial, Helvetica, sans-serif" font-size="15" font-weight="800" letter-spacing="1.4" fill="#e0bf73">START HERE</text>
    <text x="35" y="95" font-family="Arial, Helvetica, sans-serif" font-size="25" font-weight="900" fill="#fff">Research first.</text>
    <text x="35" y="128" font-family="Arial, Helvetica, sans-serif" font-size="25" font-weight="900" fill="#fff">Verify sources.</text>
    <text x="35" y="161" font-family="Arial, Helvetica, sans-serif" font-size="25" font-weight="900" fill="#fff">Then decide.</text>

    <g transform="translate(35 205)">
      <circle cx="14" cy="14" r="14" fill="#c59b4f"/>
      <path d="M8 14l4 4 8-9" fill="none" stroke="#123b2c" stroke-width="3" stroke-linecap="round" stroke-linejoin="round"/>
      <text x="38" y="19" font-family="Arial, Helvetica, sans-serif" font-size="15" font-weight="700" fill="#fff">Official source library</text>
    </g>
    <g transform="translate(35 250)">
      <circle cx="14" cy="14" r="14" fill="#c59b4f"/>
      <path d="M8 14l4 4 8-9" fill="none" stroke="#123b2c" stroke-width="3" stroke-linecap="round" stroke-linejoin="round"/>
      <text x="38" y="19" font-family="Arial, Helvetica, sans-serif" font-size="15" font-weight="700" fill="#fff">Free planning tools</text>
    </g>
    <g transform="translate(35 295)">
      <circle cx="14" cy="14" r="14" fill="#c59b4f"/>
      <path d="M8 14l4 4 8-9" fill="none" stroke="#123b2c" stroke-width="3" stroke-linecap="round" stroke-linejoin="round"/>
      <text x="38" y="19" font-family="Arial, Helvetica, sans-serif" font-size="15" font-weight="700" fill="#fff">Middle East jobs</text>
    </g>
  </g>

  <text x="70" y="586" font-family="Arial, Helvetica, sans-serif" font-size="20" font-weight="900" fill="#123b2c">gccmarketentry.me</text>
  <text x="1120" y="586" text-anchor="end" font-family="Arial, Helvetica, sans-serif" font-size="14" font-weight="700" fill="#657168">Built for practical GCC research</text>
</svg>
